/* XPM */
static char *bf6d28bf95ed42c385115b966c9ae7acEDxd2WqUVBJQTbzW[] = {
/* columns rows colors chars-per-pixel */
"60 60 228 2 ",
"   c None",
".  c #3F3F3F",
"X  c #5A791E",
"o  c #424242",
"O  c #4C4B4B",
"+  c #585757",
"@  c #666565",
"#  c #6C6C6C",
"$  c #716F6F",
"%  c #747474",
"&  c #7D7C7C",
"*  c #787777",
"=  c #807F7F",
"-  c #388E05",
";  c #3C8F13",
":  c #379000",
">  c #459905",
",  c #579602",
"<  c #4B9A17",
"1  c #4A8E13",
"2  c #48A308",
"3  c #57A707",
"4  c #59B601",
"5  c #4CA619",
"6  c #53A31B",
"7  c #69A806",
"8  c #68B803",
"9  c #7BB403",
"0  c #62A91A",
"q  c #69B417",
"w  c #77B416",
"e  c #569A30",
"r  c #789934",
"t  c #5FA33C",
"y  c #66AB38",
"u  c #6FB731",
"i  c #7DCC01",
"p  c #77C400",
"a  c #6FC705",
"s  c #7EC43C",
"d  c #6F8445",
"f  c #6BA948",
"g  c #77B447",
"h  c #74AB53",
"j  c #82BA19",
"k  c #8CBB2A",
"l  c #86C502",
"z  c #94C302",
"x  c #89D300",
"c  c #95DC00",
"v  c #9BD701",
"b  c #85C616",
"n  c #96CA17",
"m  c #89DB14",
"M  c #9ED218",
"N  c #A9CF03",
"B  c #ACDB03",
"V  c #A3D600",
"C  c #A5D218",
"Z  c #B4DA1D",
"A  c #A1CB19",
"S  c #94E103",
"D  c #9AE801",
"F  c #96E615",
"G  c #97EE06",
"H  c #A4E500",
"J  c #ABE501",
"K  c #A3EB04",
"L  c #B3EA00",
"P  c #BAEB01",
"I  c #B5E509",
"U  c #A6F401",
"Y  c #B7F601",
"T  c #B6E618",
"R  c #B6F618",
"E  c #AFED1C",
"W  c #9AC839",
"Q  c #9BD23B",
"!  c #8CCF32",
"~  c #A5D82A",
"^  c #B6DA2B",
"/  c #A2CD37",
"(  c #A3D237",
")  c #B6D939",
"_  c #B8E326",
"`  c #BBE234",
"'  c #B1F02C",
"]  c #C9DE18",
"[  c #C5EE00",
"{  c #C5EA09",
"}  c #CCF200",
"|  c #C2F500",
" . c #D5F300",
".. c #DCF501",
"X. c #D9FA00",
"o. c #CDF714",
"O. c #E1F701",
"+. c #E3FA00",
"@. c #E7FB0E",
"#. c #E4FB12",
"$. c #C7E639",
"%. c #D4E93A",
"&. c #D7F239",
"*. c #D2F226",
"=. c #EAFD2E",
"-. c #81935E",
";. c #87BB55",
":. c #9ABA53",
">. c #8B9871",
",. c #90997B",
"<. c #85B867",
"1. c #8EBA75",
"2. c #91BF7D",
"3. c #90BE63",
"4. c #A4B67B",
"5. c #99C45D",
"6. c #95C64F",
"7. c #ACD449",
"8. c #B9D945",
"9. c #BAD959",
"0. c #A4CF54",
"q. c #ADE75A",
"w. c #B1E949",
"e. c #97C163",
"r. c #9AC575",
"t. c #ADDB73",
"y. c #ADD172",
"u. c #B6E768",
"i. c #C3DD52",
"p. c #C7E747",
"a. c #CBE854",
"s. c #D7F558",
"d. c #D8EC50",
"f. c #E9FB46",
"g. c #C5DA66",
"h. c #C6DA76",
"j. c #D7E96C",
"k. c #DBF165",
"l. c #D4EA79",
"z. c #D1E96E",
"x. c #E2F568",
"c. c #E6F475",
"v. c #848383",
"b. c #8B8A8A",
"n. c #898787",
"m. c #949494",
"M. c #989797",
"N. c #9D9C9C",
"B. c #A09F9F",
"V. c #98AA8A",
"C. c #A8B38E",
"Z. c #A3A3A3",
"A. c #ACACAC",
"S. c #A9A9A5",
"D. c #B0AFAF",
"F. c #B4BAA8",
"G. c #B4B4B4",
"H. c #BBBBBB",
"J. c #ADB2A1",
"K. c #C0BFBF",
"L. c #9CC686",
"P. c #A8CD83",
"I. c #BAD983",
"U. c #A6CB97",
"Y. c #B5D696",
"T. c #ABD28C",
"R. c #BAC6AB",
"E. c #BAD8A7",
"W. c #BCC1B3",
"Q. c #C3DC94",
"!. c #C8E38E",
"~. c #CBE496",
"^. c #D8EB9C",
"/. c #D7EB86",
"(. c #E9F686",
"). c #EAF899",
"_. c #C1CDA5",
"`. c #C4DCA9",
"'. c #C9DBB8",
"]. c #CED7B4",
"[. c #D9EBA8",
"{. c #CDE4B9",
"}. c #DAE9B5",
"|. c #CDE0AE",
" X c #E5F2A9",
".X c #E1EEBD",
"XX c #E9F3B6",
"oX c #C3C3C3",
"OX c #CCCCCC",
"+X c #D4D4D4",
"@X c #DCDCDC",
"#X c #D1D2CF",
"$X c #D7E8C9",
"%X c #DDE9D7",
"&X c #EDF6CA",
"*X c #F6FBC7",
"=X c #E3EDD4",
"-X c #E4EDDB",
";X c #E2E4DB",
":X c #EBF4D7",
">X c #F4FAD4",
",X c #F9FCDA",
"<X c #E4EFC9",
"1X c #E6E6E6",
"2X c #E2E2E1",
"3X c #EAEAEA",
"4X c #EEEEEE",
"5X c #EBEBEB",
"6X c #EAEDE3",
"7X c #ECF3E4",
"8X c #EEF3EB",
"9X c #E7F1E2",
"0X c #F3F9E3",
"qX c #FBFDE5",
"wX c #F2F7EC",
"eX c #FBFDE9",
"rX c #F2F9E8",
"tX c #F1F1F1",
"yX c #F5F5F5",
"uX c #F6F6F5",
"iX c #F6FAF1",
"pX c #F8F8F8",
"aX c #FBFBFB",
"sX c white",
"dX c #FEFEFE",
"fX c #FDFDFC",
"gX c #FFFFFF",
"hX c #F8FBF5",
/* pixels */
"                                                                                                                        ",
"                                                                                                                        ",
"                                                                                                                        ",
"                                                                                                                        ",
"                                                                                                                        ",
"                                                                                                                        ",
"                                                                                                                        ",
"                                                                                                                        ",
"                                        Z.A.G.K.oXOX+X@X@X2X1X1X3X1X1X                                                  ",
"                                  M.Z.A.G.OX#XH.Z.m.b.n.v.& % % n.D.2XuXtX5X@X                                          ",
"                                M.Z.A.oXA.= = b.M.N.Z.OX2X3X4XtX2XK.m.m.D.@X4X2X+XH.                                    ",
"                                N.A.A.m.B.A.G.G.oXoXOXN.m.v.m.G.H.K.G.oXG.A.B.m.G.OXH.A.                                ",
"                                N.Z.D.D.v.B.D.H.oXOXOXB.b.O @ @X1XuXA.pXtX2X#XG.Z.OXoXG.B.                              ",
"                                $ M.A.G.G.Z.b.B.G.G.b.* M.% n.5X2XtXD.4XtX1X+XOXH.A.oXG.A.M.                            ",
"                                # o = A.G.K.oXoXS.m.b.v.$ + O o . o @ A.OXoXH.D.M.b.H.G.A.N.                            ",
"                                @ o @ #X@XoXK.OX#X+X@X@X#XG.N.m.b.n.v.n.b.b.N.H.OXOXH.G.A.                              ",
"                                b.o # +X3X4X2XOXOX#X+X2X3X4XyXpXaXfXfXfXfXyX3X@X+XoXG.oX@X                              ",
"                                yXv.# +X5X4X@XOXD.m.& n.K.@X5X4XtXtXyXtX5X@XoXZ.= % m.OX+X                              ",
"                                pX#XG.@X5X4X@XOXD.m.* = D.+X4XaXpX1XOXZ.= O o O + $ M.OX@X                              ",
"                                pXOX@XyX4X@X+XoXA.m.% n.G.@X4XpXtX1XoXB.* O o O @ % Z.#X                                ",
"                                pXOX@XyXfXfXaXOXN.b.& M.H.@X4XpXtX2XK.M.* o o O @ n.H.tX                                ",
"                                pXOX@XpXdXfXfX2XoXA.G.@X4XpXaXfXpX4X@XK.A.b.m.N.A.oXtXyX                                ",
"                                yXOX@XpXdXdXaX@XH.A.G.1XfXdXdXdXfXpX4X2X+XG.D.A.D.#XyX3X                                ",
"                                tXOX2XaXdXdXpX@XH.A.G.1XfXdXdXdXfXpX4X2XOXG.D.A.G.+XpX+X                                ",
"                                4XOX2XaXdXdXuX@XH.A.H.3XfXdXdXdXaXaX3X@XOXG.D.A.G.@XdXoX                                ",
"                                4XOX1XaXdXdXuX+XG.A.H.5XfXdXdXdXaXyX3X+XoXG.D.A.H.2XdX                                  ",
"                                4X#X1XpXdXiX=X_.C.C.R.6XdXdXdXdXaXyX1X@XK.G.A.A.oX3XaX                                  ",
"                              K.5X_.~.[.~.9.n n 7.( Q !.}.:X0X0X:X=X2X+XH.D.A.A.oX5XuX                                  ",
"                              oXh.8.[.>XXX/.~ C ~ 9.g.[.:X0X0X0X>X Xh.7.! 4.A.D.#X4X%X                                  ",
"                              OX) 8.&XqX>X/.i.` C ) /.&X,XeX0XeX*X Xl.a.^ ) ( :.R.'.R.                                  ",
"                              +X) ).&XqX>X(.8.^ ^ p. X>XeXeXeX,X*X).(.d.%.i.y.;.Y.hXV.                                  ",
"                              +X_ *X-XY..Xl.^ ^ ` a.XX,XeXeXqX,XXX).d.) k P.wXdX`.5.                                    ",
"                              @X_ *X$XL.1.1 , 9 A i.^.,XqXqX>XXX!.0.:.=XdXdXaXr.W `.                                    ",
"                              2XT *X$XE.V.1 > , 7 j N ] %.i.0.3.$XpXdXdXdX{.w i.g.-X                                    ",
"                              1XT >X$XL.h ; ; 2 k w j N j I.hXdXdXfXdXdXg 7 N x.8.-X                                    ",
"                              3XE ,XE.U.U.; : 2 0 7 :.6XdXdXdXdXdXfX$X> 3 j B j.W +X                                    ",
"                              5XR qXE.L.h - < f %XaXdXdXdXdXdXdXdX;.2 > q Q J k.Q oX                                    ",
"                              wX_ :XP.h f E.aXdXdXfXdXdXdXdXdX=X0 q u 5 s i I a.t.                                      ",
"                              8X_ Y.E.hXfXfXdXdXdXdXdXdXdXdX7Xg , 6 > 5 4 i I w.{.                                      ",
"                              5X8.$X9XfXfXfXdXdXdXdXdXdXdXdXdXdXdXdX%XL.y 8 M ~ -X                                      ",
"                              7X$.$Xr.f e f E.wXdXdXdXdXdXdXdXdXdXdXdXdXdXdX0X6.;X                                      ",
"                              7Xs.iXY.r.t - - > < -XdXdXdXdXdXdXdXdXdXaXE.w ~ m +X                                      ",
"                              :Xk.iXU.r.t - > e.dXdXdXdXdXdXfXdXdX%Xf 2 8 c p.! oX                                      ",
"                              <Xx.rXY.r.g 5 -XdXdXdXdXdXdXdXiXr.0 3 2 u i J a.t.                                        ",
"                              }.c.:XT.g P.dXdXdXdXdXdXdX`.w l l i 8 3 ! x T p.{.                                        ",
"                              [.x.`.;.rXdXdXdXdXdX%Xe.z B $.I B x p 4 a c ] ` -X                                        ",
"                              !.7.E.dXdXdXdXwXr.w V P d... .[ L c i a x D &.~ 2X                                        ",
"                              ;.iXdXdXdXE.q i c H } ..=.(...*.P D x m c L d.~ +X                                        ",
"                            '.dXdX=Xe.s m F U R P X.#.+.@.+.X.Y E S S H P x.( oX                                        ",
"                        <.fXtXr.6.I.u.w.G U ' Y o. .).f.=.+.X.s.R G K Y { k.t.                                          ",
"                      -X'.e h ) c.^.u.q.F S G K P  .O.O.+.+.X.| Y U ' P o.k.}.                                          ",
"                            R.i.g.~.u.q.S D J P [ ..O.O.+.&.} P D G U | =.a.-X                                          ",
"                            _.}.h.!.q.w.D J J P [ ..O.O..... .P H c v V %.p.@X                                          ",
"                              R.#X{.0.( c J L P }  .....X. .} P H c v V 8.W +X                                          ",
"                                  R.uX:Xe.b v L [ }  ... .} | L H c V V 8.Q.H.                                          ",
"                                      X >.S.A.D.].^.j.p.^ ^ C n w k :.C.+X;X                                            ",
"                                                X d >.C.F.F.F.J.V.V.-.r                                                 ",
"                                                                                                                        ",
"                                                                                                                        ",
"                                                                                                                        "
};
