/* XPM */
static char *f3f02a7aceef46fab65ac1e2b3ca0a516Q3m5yrbqbmI4ggt[] = {
/* columns rows colors chars-per-pixel */
"60 60 234 2 ",
"   c None",
".  c #141B2D",
"X  c #141B2D",
"o  c #131C32",
"O  c #191F32",
"+  c #101836",
"@  c #0D152A",
"#  c #192135",
"$  c #16213B",
"%  c #1B253C",
"&  c #1A253A",
"*  c #222A3D",
"=  c #202636",
"-  c #1A2542",
";  c #1D2944",
":  c #1E2B4B",
">  c #1A2549",
",  c #222C44",
"<  c #222D4C",
"1  c #26324D",
"2  c #2A354D",
"3  c #263046",
"4  c #232E54",
"5  c #222C59",
"6  c #263353",
"7  c #2A3553",
"8  c #2D3955",
"9  c #2D3A5B",
"0  c #28345B",
"q  c #313E5B",
"w  c #313D57",
"e  c #222D69",
"r  c #2E3B61",
"t  c #2B3769",
"y  c #313D67",
"u  c #2A377A",
"i  c #313E73",
"p  c #222D71",
"a  c #1F2B71",
"s  c #33415E",
"d  c #344364",
"f  c #33446B",
"g  c #38466C",
"h  c #3A4A6D",
"j  c #384766",
"k  c #334274",
"l  c #3B4C73",
"z  c #3B4C7C",
"x  c #364779",
"c  c #3E5277",
"v  c #2D4067",
"b  c #42557A",
"n  c #44567A",
"m  c #0E329B",
"M  c #183798",
"N  c #0E288F",
"B  c #293986",
"V  c #2A3B8F",
"C  c #133BA1",
"Z  c #0B3CA6",
"A  c #1E459E",
"S  c #364887",
"D  c #3E538C",
"F  c #3F5282",
"G  c #394D94",
"H  c #3D5496",
"J  c #29499B",
"K  c #1A44A3",
"L  c #194BAA",
"P  c #1955B2",
"I  c #1853AC",
"U  c #264BA7",
"Y  c #2857AB",
"T  c #385BA9",
"R  c #255DB4",
"E  c #2566BA",
"W  c #3864B5",
"Q  c #2774BE",
"!  c #3565AF",
"~  c #1F6BBF",
"^  c #435484",
"/  c #455984",
"(  c #465A88",
")  c #425C9B",
"_  c #445995",
"`  c #404F88",
"'  c #51668F",
"]  c #4C6395",
"[  c #4E649C",
"{  c #546B97",
"}  c #5B739D",
"|  c #4E628B",
" . c #425BA4",
".. c #4C66A7",
"X. c #536BAB",
"o. c #536AA4",
"O. c #5A74AC",
"+. c #5976AC",
"@. c #4A6CB4",
"#. c #536CB1",
"$. c #4D74B9",
"%. c #5B76B4",
"&. c #5978B8",
"*. c #627EB4",
"=. c #627DA8",
"-. c #367EC4",
";. c #2770C3",
":. c #1E62C1",
">. c #487AC5",
",. c #537AC1",
"<. c #5B83BE",
"1. c #4481BC",
"2. c #6887BA",
"3. c #778EBD",
"4. c #2B86C7",
"5. c #3D8BCA",
"6. c #3687C7",
"7. c #3995CC",
"8. c #3A98D1",
"9. c #488BC9",
"0. c #5C84C2",
"q. c #598AC6",
"w. c #4797CC",
"e. c #5C93CC",
"r. c #5C9ACD",
"t. c #5597CB",
"y. c #4A8BD1",
"u. c #459CD1",
"i. c #4B9DD1",
"p. c #4A95D3",
"a. c #5B9CD5",
"s. c #5698D3",
"d. c #548AD5",
"f. c #6B8CC4",
"g. c #658CCA",
"h. c #6589C5",
"j. c #6393CB",
"k. c #6C92CB",
"l. c #6898CC",
"z. c #739BCC",
"x. c #7496C8",
"c. c #679AD4",
"v. c #749CD3",
"b. c #7C9FD0",
"n. c #59ACCE",
"m. c #4CA4D4",
"M. c #54A3D4",
"N. c #5DA3D4",
"B. c #5DABD4",
"V. c #55ABDA",
"C. c #5CABDB",
"Z. c #56A7D8",
"A. c #5EB3DB",
"S. c #5BB2D4",
"D. c #7AA2CD",
"F. c #63A2D2",
"G. c #6CA4D4",
"H. c #62ABD4",
"J. c #6CA5D9",
"K. c #64ACDA",
"L. c #6CACDB",
"P. c #69A9D5",
"I. c #74AAD5",
"U. c #7CACD4",
"Y. c #73ACDC",
"T. c #7CACDA",
"R. c #77A4D6",
"E. c #64B4DC",
"W. c #6CB3DC",
"Q. c #62BADC",
"!. c #6CBBDD",
"~. c #6AB3D6",
"^. c #73B4DC",
"/. c #7CB4DB",
"(. c #74B9DC",
"). c #7BBCDD",
"_. c #78B1D6",
"`. c #66AACF",
"'. c #5DB4E0",
"]. c #6BBDE1",
"[. c #68B5E1",
"{. c #73BBE2",
"}. c #7BBCE2",
"|. c #72B5E0",
" X c #74AAE0",
".X c #76C1DF",
"XX c #6DC3E2",
"oX c #74C3E3",
"OX c #7CC4E3",
"+X c #7CCBE5",
"@X c #77C8E7",
"#X c #7DD7E8",
"$X c #84A9D5",
"%X c #84B2DB",
"&X c #8BB4DB",
"*X c #84BADC",
"=X c #8CBADD",
"-X c #87B3D6",
";X c #96BCDA",
":X c #A1BEDC",
">X c #82BBE1",
",X c #8BBCE2",
"<X c #83B4E2",
"1X c #91BDE3",
"2X c #829ECA",
"3X c #89C3DD",
"4X c #93C3DD",
"5X c #98C8DE",
"6X c #A4C5DD",
"7X c #83C3E3",
"8X c #8BC4E3",
"9X c #83CBE4",
"0X c #8CCAE3",
"qX c #85CCE8",
"wX c #94CCE5",
"eX c #9BCDE3",
"rX c #99C7E5",
"tX c #8DD4E9",
"yX c #88D6E7",
"uX c #94D3E5",
"iX c #9BD3E5",
"pX c #9CDBE6",
"aX c #96D9E8",
"sX c #A6CDE3",
"dX c #A3D3E5",
"fX c #AADCE6",
"gX c #A7D8E7",
"hX c #B3DCE9",
"jX c #B5DAE5",
"kX c #93E4EA",
"lX c #8CE2EA",
"zX c #BCE2E7",
"xX c #ACE2E8",
"cX c #C4DCE6",
/* pixels */
"                                                                                                                        ",
"                                                                                                                        ",
"                                                                                                                        ",
"                                                                                                                        ",
"                                                        ; : : :                                                         ",
"                                                & & & 6 g 9 1 6 * & 6 %     ;                                           ",
"                                      9 % ; & 3 c +./ d | n { j 8 3 9 3 % 9 7 ;                                         ",
"                                    # % & , h / / { ] | c j ' c s n j q 7 3 0 % % 0 :                                   ",
"                                + O - 6 S  .S { +.( x k _ .. .h.z g r t u 1 ( ) S 6 X 6 %                               ",
"                              O 4 , x z  .( ^ o.g c ^ *.k.*.$.z.f.] { f S t z ) S k v : $ %                             ",
"                            # , 7 * 2 ] ..*.2X' O.%.) _ *.f.f.U.D.x.x.-X` %.=.i e T S D S :                             ",
"                          O , / , s b d } ( o.$X6Xh.-X>Xv.R.$XfX>XR.h.=XsXx.o.b y S D +.v < 1   #                       ",
"                        O k 8 7 8 h / 2.*.%Xb.f.f.h.*XR.v.qX0Xb.c.c.h.e.x.3.3.$XX._ u [ z g g < o o                     ",
"                    - f s | q l n 3.{ 2Xb.sXx.$X$XrXD.,XR.OXtX^.h.&.I.<.T.sX1X<X2.x...H 8 [ 0 ( ; o                     ",
"                    o : z d 8 d / %.:X2Xv.jXv.f.D.c.#X).;X=XD.T.q.7X}.U.(.{.rXwX$Xf.&. .S t ^ 9 9 :                     ",
"                @ O 6 9 f z ] D f.T.,Xf.&X$X,X0X_.}.}.gXpX0XrXdX:XgX8XW.G.^.g.|.rX1Xc...) S k q h 9 1                   ",
"                O , r 7 _ _ _ X.v.T.v./.,XrXY.R.iXaXpXzXaXtXhXgX1XsXjXiX7Xl.n.j.<.R.>X<X%.S i ^ / c j .                 ",
"                O < r x S  .#.,.z.*Xl.%XrX*XfXhXpXfXgXiXcXwXcX8X>XcXcXsXyX{.!.H.Y.j. X,X<X.._ X.) F j X                 ",
"                < , 0 0 ` o.rX8XiXG.0./.fXfX0XsX3X^.K.N.N.d.s./.Y.%Xc.,XjXqXaXqXt.[.}.7X8Xg.#.#...2.l ( #               ",
"              X , 0 G G &.$XrXdXg.l.c.7XuXjXeX3XN.W.[.eXW.Z.Z.a.K.^.^.$XT.wXtXzX~.K.[.c.iX<X$X#.k H l 7 #               ",
"              % l i *.h.$X<X<XJ.h.L.pXyXuX+XuXgXK.G.L.C.E.E.M.A.E.[.K.y.g.,XgXjXfX{.9XW.].}.<X*.| g s , ; .             ",
"            # } y _ _ h.k. XwXJ.|.XXtXkXpXfX+X/./.W.P.B.E.^.P.s.9.p./.E.s.,.).wXhXiX0X}.[.OXgXd...| ' / d 1             ",
"            w n d i x.@.T.8XaXtX{.{.qXwXeX0X(.~.M.N.P.I.I.I.-Xl.i.D.t.K.].9./..XhXfXpX!.OX+XhX<XD._ g g 3 ,             ",
"          < 8 n ( u _ %.v.7XaXaXyXaXfXuX^.G.H.B.M.F.G.w.5.9.6.z.j.w.a.N./.N.a.^.gXzXqXyX'.{.aX<Xb.( [ =.3 , -           ",
"        : # d { 2.[ X.k.$X9X%X[.@XzXjX;XN.I.H.I.E.t.w.6.:.-.R ;.>.6.7.t.r.V.9XZ.jXjX7X].H.E.[.<Xk.f.x { g * 7           ",
"        6 # 8 d { O.X.0.%X(.c.kXpXxX4X4XC.B.E.`.r.9.;.:.E R R R ! ! 6.7.w.i.Z.0X=X0X4X+XyX!.L.v.$Xk.[ O.q b <           ",
"        # ; d 7 b D j.R.g.0.K.iXfXfX7XU.K.8XQ.5.9.;.~ I K U K U J L Q `.6.w.Z.uX3X4X6X7X#XyX}.l.k.&X%.i n d 7           ",
"          ; h j s z %Xh.j.}.9X{.fXkX3XW.!.E.9.5.4.E K N M C C C M J Y 6.u.P.Q.oXA.*X6XoX#X[.K.}.g.,._ b l 7 1           ",
"        ; , * n j o.$Xl.q.L.qXqXqXpXW.V.oXM.9.8.-.L N C U W R U V B Y 6.n.U.m.A..XI.-XaXkXtX[.wXz.%.| ) n g d           ",
"          O 2 n b *.%.Y.Y.e.|.7XyXpXW.V.A.i.m.w.E M M L W 9.i.;.J M K 7.n.B.u.!.3X~.4XuXlXXX+X9X&Xk.h.&.b { c           ",
"          O s n / x.g.R.+XK.a.uXkXtX3XZ.C.i.m.8.Y N A Y 1.S.5X4.P A U 7.B.Q.`.XX(._.5XuXqX@XOXwXY.D.+.3.l 8 # .         ",
"          * 2 n } @.&.k.{.{.L.hXkXoX4XW.C.6.m.4.Y A M L E Q 4.Q I m Y 7.5.Q.`..Xn.U.*XeXkXtXiXuX-XO.@.S n d &           ",
"          # = n s X.X.2.q.e.8XiXfXqXV.Z.].w.7.8.P K M m A L Y U m L P 1.n.S.t.A._.U.P.sXkXyXhXk.D.%X&._ d 8 # %         ",
"          O j s s %.o.j.q.{.a.pXaX9X).d.L.u.4.m.;.K N N m m m M P I P 6.9.B.P.Q.M.p.P.jX@X(.<X>Xk.x.V H w w 2           ",
"          , & s { o.X.3X/.}.[.+XfXpX(.G.E.E.9.6.8.E M N m N I L L J ! <.H.F.i.E.G./.6XiX+X0.K.OX5X2XX.e 9 , # -         ",
"            s f } [ 2.=X7XiXK.F.9XoX(.dX/.OXl.6.m.u.Q M N N M V A Y t.u.C.w.Z.E.H.L.%XeX9X(.7XF.-Xj.G e f * X           ",
"            d 3 b _ *.h.0XOXs.d.A.OXuX3X^.(.!.w.5.8.8.;.K M Y 7.n.m.S.Q.w.H.!.K.F.&X;XJ.^.OXJ.j.e.W B p r 9             ",
"            j = w l ` c.k.qXc.].].Q.5X4X/.c.C.).i.9.7.4.4.;.Q 4.7.n.S.m.i.y.XX{.OX=X/.K.J./._.J.@.$.u 4 l f o           ",
"            X 7 j ^ ( v.x.J.XX+XA.M.sX5X~.&XC.@XV.V.u.w.6.w.u.8.7.7.t.C.y.[.@XtX>X%Xd.*X|.L.wX>X<.u B +.9 1 $           ",
"              & d _ k  ...J.c.@XL.9..X-XuX0XW.9XXXm.i.V.u.5.y.y.m.M.>.d.C.[.sX3XW.t.e.>.e.J.sXG.@.u t > 9 o             ",
"            o O 8 l ^ D z #.g.}.,.(.XX9X4XiX(.^.K.a.a.y.!.Z.oXoXV.t.C.Z..X5XuX8XK._.P.$.j.>Xz.$.&.D v + 6               ",
"              ; % 9 r t t +.X.g.g.XX^.@X3XiXOX).,X Xc.d.=X4Xd.L.).:X=X*X3XeXsXOX(.9X!.r.0.0.2.G u e > + O               ",
"              : O z k l _ g [ x.).q.9.!.W.pXXX.X7X}.,XY.sX1XsXeXsXeXiXxXxXhXqXB.(.9.9X<.$Xk.T &.D 5 >   o               ",
"                  6 9 c ) ` b } f.c.@XQ.!.!.S.tX+X7XdXhXuXqX+XpXzX9XiXgXiXtXXXA.P.`.X.2.] z G c 4 < o                   ",
"                o -   y _ u _ O.=Xx.0XN.E.!.S.B.XXS.Q.9XgXaXpXyXoXoXOXiXoX{.@XtX#XqXq.@.V y 7 r < < .                   ",
"                  $   d 7 x b i _ D.%.Y.G.l.M.(.9.V.Q.[.(.E.+X+XyX@X+XW.{.tX}.7X/.>.@.) h 9 1 z r v                     ",
"                        O O S 8 l b +.q.e.~.(.e.OXyXyX(.r.F.OXF.S..XN.r.).7XJ.8XeX$.T z d _ 7 ^ - $                     ",
"                        f , 1 i x 7 ( { 0.2.t./.c.7X0X7Xq.R.^.OX^.t.l.D.,.%X$Xh.f. ...S _ t < : > +                     ",
"                        - # f 6 4 l r 7 i { X.k.j.wXR.Y./.k.f.8X0.<.*.=X#.b.h.) o...) D 4 6 6 +                         ",
"                          $ o : < 5 0 p 0 g o.q.9.c.;X,Xc.<.f.*.2.z. .T G x.T B B D D k 1 o   +                         ",
"                              o % < 5 a ` l q b G S D D [ _ S z O.F H S ` u p ) 0 ( 6 O                                 ",
"                                - ; r 9 7 w { d c d | { 2.+.g w h w ( 8 l 8 y 3 % 6 % $ $                               ",
"                                  $ 0 < O * 2 f / c j h n 2.l g 2 w h * 1 w 9 % #                                       ",
"                                            X O , 3 s c 7 1 d | 9 h d v 1   % %                                         ",
"                                              O # 7 : & 8 6 # O s 1 9 : &                                               ",
"                                                    : - . @ @ o $     o o                                               ",
"                                                                                                                        ",
"                                                                                                                        ",
"                                                                                                                        ",
"                                                                                                                        "
};
