/* XPM */
static char *_70fe149d5534a29dec335e2e58e7b63lFTfjTeQhz7nJY4n[] = {
/* columns rows colors chars-per-pixel */
"60 60 178 2 ",
"   c None",
".  c #000001",
"X  c #01050B",
"o  c #02080E",
"O  c #030713",
"+  c #020B15",
"@  c #040B1C",
"#  c #0B0E1F",
"$  c #03111D",
"%  c #0B141A",
"&  c #0F1012",
"*  c #12121D",
"=  c #161114",
"-  c #281B06",
";  c #2D1E13",
":  c #2F0007",
">  c #092E06",
",  c #2B2401",
"<  c #282C18",
"1  c #343C1D",
"2  c #060D23",
"3  c #090E23",
"4  c #060F29",
"5  c #031424",
"6  c #06122A",
"7  c #08112C",
"8  c #04192C",
"9  c #0B1825",
"0  c #091434",
"q  c #051D34",
"w  c #0A1639",
"e  c #0B183E",
"r  c #061738",
"t  c #121A23",
"y  c #182B2B",
"u  c #06223C",
"i  c #0A2035",
"p  c #1C373B",
"a  c #313233",
"s  c #262625",
"d  c #6C000F",
"f  c #453E0F",
"g  c #553200",
"h  c #46270F",
"j  c #663C03",
"k  c #643502",
"l  c #6F240A",
"z  c #324436",
"x  c #4D4200",
"c  c #504400",
"v  c #734301",
"b  c #785904",
"n  c #685501",
"m  c #0B1943",
"M  c #0C1C4A",
"N  c #0E1F51",
"B  c #052643",
"V  c #072B4D",
"C  c #082B4B",
"Z  c #1A3B45",
"A  c #0F2155",
"S  c #072D50",
"D  c #082F53",
"F  c #10245E",
"G  c #083156",
"H  c #09335B",
"J  c #112664",
"K  c #13296C",
"L  c #093661",
"P  c #093864",
"I  c #0A3D6D",
"U  c #013B6C",
"Y  c #132B71",
"T  c #0A3F70",
"R  c #295158",
"E  c #114268",
"W  c #0B4174",
"Q  c #00457F",
"!  c #0C467C",
"~  c #0C487F",
"^  c #2F5E66",
"/  c #305E66",
"(  c #32646C",
")  c #8C0413",
"_  c #980015",
"`  c #B00118",
"'  c #822F0B",
"]  c #CA001C",
"[  c #D5001E",
"{  c #DE001F",
"}  c #824D00",
"|  c #8D5301",
" . c #945801",
".. c #B26B01",
"X. c #BA7701",
"o. c #BC7A01",
"O. c #B77001",
"+. c #A86401",
"@. c #AC5436",
"#. c #A4603F",
"$. c #977542",
"%. c #BA6440",
"&. c #209818",
"*. c #44852C",
"=. c #6E966B",
"-. c #9A8201",
";. c #B69A01",
":. c #BEA101",
">. c #C48F01",
",. c #C29201",
"<. c #C5A801",
"1. c #DFAB00",
"2. c #D9B701",
"3. c #D5B601",
"4. c #E1BF01",
"5. c #CCB327",
"6. c #EBC300",
"7. c #E6C400",
"8. c #F3CE00",
"9. c #FCD501",
"0. c #FED801",
"q. c #FEDD1C",
"w. c #D08B58",
"e. c #D78E67",
"r. c #FCA86B",
"t. c #FBA76A",
"y. c #0C4A83",
"u. c #0D4D89",
"i. c #0D4681",
"p. c #104B83",
"a. c #0D508E",
"s. c #135580",
"d. c #0E5292",
"f. c #00549B",
"g. c #085498",
"h. c #2B6F8C",
"j. c #3B7580",
"k. c #0059A4",
"l. c #0057A0",
"z. c #105DA6",
"x. c #105FA9",
"c. c #1061AD",
"v. c #1962A7",
"b. c #1265B3",
"n. c #1269BA",
"m. c #1167B8",
"M. c #1971BE",
"N. c #2C78A5",
"B. c #126DC2",
"V. c #1570C5",
"C. c #1473CB",
"Z. c #1476D2",
"A. c #1478D5",
"S. c #157CDC",
"D. c #157FE1",
"F. c #42838D",
"G. c #49909C",
"H. c #509EAB",
"J. c #57ADBD",
"K. c #1681E4",
"L. c #1785EC",
"P. c #178BF6",
"I. c #188BF7",
"U. c #178BF8",
"Y. c #188CF8",
"T. c #1787F0",
"R. c #2291F8",
"E. c #3B9DF8",
"W. c #5DB8C9",
"Q. c #47A3F9",
"!. c #79AFE2",
"~. c #67CBDD",
"^. c #6DD7E9",
"/. c #75E6F9",
"(. c #A4A4A4",
"). c #80BFFA",
"_. c #86C2FA",
"`. c #FFFFFF",
/* pixels */
"                                                                                                                        ",
"                                                                      . - -.2.7.:.x                                     ",
"                                                                    X C / Z u t b 9.0.x                                 ",
"                                                                  . ! ! ! E ^.~ l.W ,.0.<.                              ",
"                                                                  I ! ! i.Y.P.W.h.k.Q X.0.2.                            ",
"                                                .           .   X ! ! ! L.Y.Y.P.^.s.l.s O.9.-.                          ",
"                                                  . .       X . 5 ! ! u.Y.Y._.Q.M./.l.f.....9..                         ",
"                                                    @ m .   . F q ! ! c.Y.Y.R.Y.U.~.s.k.j +...,                         ",
"                                                      @ K 0 . m @ < :.3.z U.Y.Y.Y.N.J.k.k.l.f.Q                         ",
"                                                        3 F A w k ;.l ' 9., ! Y.Y.C./.k.f.3.3.y .                       ",
"                                                I v.+     0 7 3 ..: ) { ' 7.@.t I.L./.x.f.X.8.1 .                       ",
"                                              u R.I.u.P . . 3 = | { _ { ` 0.#.(.a K./.k.f.v } < .                       ",
"                                              c.p.a.I.m.W . 3 3 O.[ { : n 3.e.`.=.> G ! ~ ! B +                         ",
"                                              . W ! y.P.S.8 @ w v  .) k 4.% %.`.&.> w.8 ! H +                           ",
"                                                . W P + c 5.;.& 0 j ..} 3 K h r.*.$.r.r.. .                             ",
"                                                  X J f 0.q.1.7 w w 0 2 w Y K & w.r.r.r.;                               ",
"                                                m Y Y ;.X.o.} w 7 w w O w K Y Y K m 7 w .                               ",
"                                            . J Y Y 7 ; 3 = 4 X w w w w X w Y Y Y K 7 @                                 ",
"                                          . K Y Y Y M w 0 X 7 w w K e w w X w K m e 4                                   ",
"                                        . K Y Y Y e w @ R @ w w w Y Y F w N .   X               8 S.X                   ",
"                                        J Y Y K w w X p ( 2 w w w w M m w w K .               . ! U.$                   ",
"                                      7 5 6 2 7 w O   W.X 0 w w w w w 0 w w K J .           u B y.Z.H .                 ",
"                                    5 T.Y.U.U.L.+   % ^.@ w w w w 9 7.7.-.7 w Y K . y.X . V ! V B.u 6 W                 ",
"                                  q u.Y.Y._.P.Y.m.. G.R 2 w w w w 7.b ` + @ w w K V U.q U.U.q + H u y.K..               ",
"                                  ! a.U.Y.!.V.T.n.% /.X 0 w w w * 9.[ _ @ @ 4 w 0 S.I.+ ! C.I.5 ! 8 m.q $ .             ",
"                                  ! ! V.5 B 5 L @ y J.@ w w w w h } d d . @ @ 0 6 B.U.5 H 5 $ H ! X E 8 K.+             ",
"                                  L ! @ ! 7 w W ! Z % 6 w w w w j g .     . 2 @ 4 W ! 8 ! u.A.T.a.! $ z.$ X             ",
"                                    q C ! P I ! ! 8 + w w w w w w .         . @ @ D ! I W y.K.d.! ! B W X               ",
"                                      . ! ! ! z.U.U.n.+ w w w w w 4 .           . @ ~ ! 5 ! ! ~ ! ! q                   ",
"                                        V ! K.Y.Y.U.Y.q @ w w w w 2 @ X             W ! W 8 u 5 .                       ",
"                                        + S.Y.P.Y.Y.I.L.W @ w w w @ @ w 4 .           X .                               ",
"                                        . P.Y.Y.P.Y.I.I.L.$ 2 w 2 @ @ w w w 2 .                                         ",
"                                        X L.U.U.I.I.U.! T.~ 5 2 @ @ @ 2 w w w w X                                       ",
"                                        . c.U.U.U.U.U.P ~ W X @ @ @ @ @ 2 0 w w w 3                                     ",
"                                        . W c.P.T.P n.! @ .   X @ @ @ @ @ 2 w 0 w w 7 .                                 ",
"                                        / 9 E L.C.$ ! D .       . O @ 2 @ @ @ 4 w w e 2 .                               ",
"                                    @ . H.F.2 @ T u @ F .           . @ @ @ @ @ @ @ @ @ @ . +                           ",
"                                  H ! 5 ( X 2 0 K Y Y m                 . O O O O + X 6 B.U.d.                          ",
"                                X ! i.T Z 3 w m Y Y Y @                   P ! ! ! ! ! U.Y.P.!                           ",
"                                + z.Y.Y.u # w N Y K r .                   ! ! ! ! ! ! u.D.S.$                           ",
"                                + U.U.I.U.q 3 w e w X                     . L ! ! ! ! ! L @                             ",
"                              . D L.U.I.U.U.D.i.! Z.y..                       B 8 5 q S w O                             ",
"                              C ! 8 U.Y.E.).R.Y.Y.U.y.X                       L ! ! ! ! 6 2                             ",
"                              ! ! ! @ T.^.).R.Y.Y.L.H                         C ! ! ! ! ! P                             ",
"                            X ! ! H w 3 q c.S.A.u.X                           q ! ! ! ! a.T.B.+                         ",
"                            D ! ! q w q ! ! +                                 S ! ! ! K.U.U.U.U.A.$                     ",
"                            ! ! ~ ! W ~ W .                                 . ! ! ~ I.I.I.U.U.U.U.I.Z.X                 ",
"                          5 ! ! ! ! ! W .                                   V ! ! a.I.I.U.U.I.P.U.U.I.U.u               ",
"                      . c.U.B.! ! ! ! .           . . . . . . . . . . . . . T ! ! ! c.P.Y.Y.P.P.P.P.Y.U.U..             ",
"                    + C.U.U.I.U.C.c.W . . . . . . . . . . . . . . . . . . . $ ! ! ! ! ! d.K.U.U.Y.P.S.d.G O             ",
"                  $ z.Y.U.Y.Y.Y.I.I.K.. . . . . . . . . . . . . . . . . . . . . + B I I P P P P P G u 6 w 4             ",
"                @ ! Y.P.I.U.Y.Y.U.U.L.. . . . . . . . . . . . . . . . . . . . .       . . + 4 0 w w w 0 @               ",
"              . ! m.U.P.Y.Y.U.U.I.I.S.+ . . . . . . . . . . . . . . .                                                   ",
"              B ! P.P.P.Y.P.Y.Y.U.I.c.5 . . . . . . . . . . .                                                           ",
"            . W y.Y.P.S.x.z.A.Y.U.I.! + . . . . . . . .                                                                 ",
"            . P d.d.F Y Y Y Y J i.L.! . . . . . .                                                                       ",
"            . . 6 A Y Y Y Y Y K Y 0 8 . . .                                                                             ",
"              . . 6 w w e w w 0 @ . .                                                                                   ",
"                  . . . . . .                                                                                           ",
"                                                                                                                        "
};
