/* XPM */
static char *b6640f80d07e4a69b9263a0060213dc00SmerGVdIpaABiUM[] = {
/* columns rows colors chars-per-pixel */
"60 60 178 2 ",
"   c None",
".  c #000001",
"X  c #01050B",
"o  c #02080E",
"O  c #030713",
"+  c #020B15",
"@  c #040B1C",
"#  c #0B0E1F",
"$  c #03111D",
"%  c #0B141A",
"&  c #0F1012",
"*  c #12121D",
"=  c #161114",
"-  c #281B06",
";  c #2D1E13",
":  c #2F0007",
">  c #092E06",
",  c #2B2401",
"<  c #282C18",
"1  c #343C1D",
"2  c #060D23",
"3  c #090E23",
"4  c #060F29",
"5  c #031424",
"6  c #06122A",
"7  c #08112C",
"8  c #04192C",
"9  c #0B1825",
"0  c #091434",
"q  c #051D34",
"w  c #0A1639",
"e  c #0B183E",
"r  c #061738",
"t  c #121A23",
"y  c #182B2B",
"u  c #06223C",
"i  c #0A2035",
"p  c #1C373B",
"a  c #313233",
"s  c #262625",
"d  c #6C000F",
"f  c #453E0F",
"g  c #553200",
"h  c #46270F",
"j  c #663C03",
"k  c #643502",
"l  c #6F240A",
"z  c #324436",
"x  c #4D4200",
"c  c #504400",
"v  c #734301",
"b  c #785904",
"n  c #685501",
"m  c #0B1943",
"M  c #0C1C4A",
"N  c #0E1F51",
"B  c #052643",
"V  c #072B4D",
"C  c #082B4B",
"Z  c #1A3B45",
"A  c #0F2155",
"S  c #072D50",
"D  c #082F53",
"F  c #10245E",
"G  c #083156",
"H  c #09335B",
"J  c #112664",
"K  c #13296C",
"L  c #093661",
"P  c #093864",
"I  c #0A3D6D",
"U  c #013B6C",
"Y  c #132B71",
"T  c #0A3F70",
"R  c #295158",
"E  c #114268",
"W  c #0B4174",
"Q  c #00457F",
"!  c #0C467C",
"~  c #0C487F",
"^  c #2F5E66",
"/  c #305E66",
"(  c #32646C",
")  c #8C0413",
"_  c #980015",
"`  c #B00118",
"'  c #822F0B",
"]  c #CA001C",
"[  c #D5001E",
"{  c #DE001F",
"}  c #824D00",
"|  c #8D5301",
" . c #945801",
".. c #B26B01",
"X. c #BA7701",
"o. c #BC7A01",
"O. c #B77001",
"+. c #A86401",
"@. c #AC5436",
"#. c #A4603F",
"$. c #977542",
"%. c #BA6440",
"&. c #209818",
"*. c #44852C",
"=. c #6E966B",
"-. c #9A8201",
";. c #B69A01",
":. c #BEA101",
">. c #C48F01",
",. c #C29201",
"<. c #C5A801",
"1. c #DFAB00",
"2. c #D9B701",
"3. c #D5B601",
"4. c #E1BF01",
"5. c #CCB327",
"6. c #EBC300",
"7. c #E6C400",
"8. c #F3CE00",
"9. c #FCD501",
"0. c #FED801",
"q. c #FEDD1C",
"w. c #D08B58",
"e. c #D78E67",
"r. c #FCA86B",
"t. c #FBA76A",
"y. c #0C4A83",
"u. c #0D4D89",
"i. c #0D4681",
"p. c #104B83",
"a. c #0D508E",
"s. c #135580",
"d. c #0E5292",
"f. c #00549B",
"g. c #085498",
"h. c #2B6F8C",
"j. c #3B7580",
"k. c #0059A4",
"l. c #0057A0",
"z. c #105DA6",
"x. c #105FA9",
"c. c #1061AD",
"v. c #1962A7",
"b. c #1265B3",
"n. c #1269BA",
"m. c #1167B8",
"M. c #1971BE",
"N. c #2C78A5",
"B. c #126DC2",
"V. c #1570C5",
"C. c #1473CB",
"Z. c #1476D2",
"A. c #1478D5",
"S. c #157CDC",
"D. c #157FE1",
"F. c #42838D",
"G. c #49909C",
"H. c #509EAB",
"J. c #57ADBD",
"K. c #1681E4",
"L. c #1785EC",
"P. c #178BF6",
"I. c #188BF7",
"U. c #178BF8",
"Y. c #188CF8",
"T. c #1787F0",
"R. c #2291F8",
"E. c #3B9DF8",
"W. c #5DB8C9",
"Q. c #47A3F9",
"!. c #79AFE2",
"~. c #67CBDD",
"^. c #6DD7E9",
"/. c #75E6F9",
"(. c #A4A4A4",
"). c #80BFFA",
"_. c #86C2FA",
"`. c #FFFFFF",
/* pixels */
"                                                                                                                        ",
"                                    x ;.7.2.-., .                                                                       ",
"                                c 0.0.b t u Z ^ C X                                                                     ",
"                              :.0.,.U k.~ ^.E ~ ~ ! .                                                                   ",
"                            2.0.X.i.k.h.~.L.I.~ ! ! I                                                                   ",
"                          -.0.O.s k.~ ^.T.P.I.T.! ! ! X   .           .                                                 ",
"                        . 0.O...f.k./.M.Q._.I.Y.a.! ! $ . X       . .                                                   ",
"                        , ..+.j k.~ ~.I.I.R.I.I.c.! ~ q F .   . m 2                                                     ",
"                        Q f.k.k.k.J.N.U.Y.Y.Y.z 2.<.< @ M . 0 K @                                                       ",
"                      . s <.2.f.k./.C.U.Y.! , 0.l l ;.j w N F 2                                                         ",
"                      . 1 8.X.f.k./.L.T.t @.4.' { ) : ..3 7 0     + v.I                                                 ",
"                      . < b } f.k./.S.a (.%.0.` { _ { | = 4 . . P u.I.R.i                                               ",
"                        + B ! ! ~ H > =.`.e.<.n : { ] ..4 3 . W b.Y.a.p.c.                                              ",
"                          + H ~ q w.> &.`.%.% 6.k )  .v 0 @ 8 S.P.y.! W .                                               ",
"                            . . t.r.$.*.r.h K 3 | ..v 7 & :.5.x + P W .                                                 ",
"                              ; t.r.r.w.* K Y w 2 0 w w 7 1.q.0.f J X                                                   ",
"                              . w 7 m K Y Y J w O w w 7 w } o.X.;.Y Y m                                                 ",
"                                @ 7 K K Y Y e X w w w w X 4 = 3 - 7 Y Y K .                                             ",
"                                  4 e m K w X w w e K w w 7 X 0 w M Y Y Y K .                                           ",
"                  o S.8               X   . N w J Y K w w w @ R @ w e Y Y Y K .                                         ",
"                  5 P.! .               . K e w m M w w w w 3 ( p X w w K Y Y J                                         ",
"                . H C.y.u u           . J K 0 w 0 w w w w w 0 o W.  O w 6 2 6 5 6                                       ",
"                W 8 u B.S ! S . X y.. K Y w 6 -.4.6.9 w w 0 w @ ^.%   + L.U.Y.Y.T.6                                     ",
"              . S.u.u H + q T.U.q U.V K w w @ @ ` b 6.w w w w 2 R G.. n.Y.Y._.Y.Y.u.q                                   ",
"            . $ q m.5 ! 5 U.C.! @ Y.S.0 w 4 @ @ _ [ 8.* w w w w X /.% n.T.B.!.Y.Y.a.!                                   ",
"            + K.8 I o ! G $ 5 H 5 Y.B.4 0 @ @ X d d | h w w w w @ J.y @ H 6 B 5 V.! !                                   ",
"            X 5 z.$ ! a.T.A.a.! 8 ! W 2 @ @ .     . g j w w w w 7 % Z ! W w 6 ! $ ! L                                   ",
"              X W B ! ! d.K.u.W P ! H @ O .         . w w w w w w + 8 ! ! I P ! C q                                     ",
"                  q ! ! ! ~ ~ $ ! ! @ .           . 2 w w w w w @ n.Y.P.z.! ! ! .                                       ",
"                      X 5 u 8 W ! W             O @ 2 w w w 0 $ q Y.P.Y.Y.K.! V                                         ",
"                              . X           . 2 w 2 @ w w w @ ! L.P.Y.Y.Y.Y.S.+                                         ",
"                                        . 2 w w w @ @ @ w # $ L.P.U.Y.P.Y.U.P..                                         ",
"                                      X w w w w 2 @ @ @ @ 5 ! P.! Y.Y.P.U.I.L.X                                         ",
"                                    2 w w w w 2 @ @ @ @ 2 X W ! L P.Y.Y.U.U.c..                                         ",
"                                . 0 w w w w 2 @ @ @ @ @ X   . @ ! B.P T.Y.c.W X                                         ",
"                              . 2 w w 0 2 @ @ @ @ @ O .       . D ! $ C.K.I 9 /                                         ",
"                          + . @ @ @ @ 2 @ @ @ @ @ .           . F @ u I @ $ F.H.X +                                     ",
"                          d.P.B.8 X O O O O O X                 M Y Y K w 2 X j.5 ! L                                   ",
"                          ! Y.Y.P.! ! ! ! ! P                   + Y Y Y m w @ p W ! ! X                                 ",
"                          $ S.D.u.! ! ! ! ! W                   . w K Y M w @ u I.I.z.+                                 ",
"                            @ P ! ! ! ! ! P .                     X 0 m w 2 q Y.U.I.U.+                                 ",
"                            X w V q 5 8 B                       . y.Z.i.y.K.Y.Y.U.I.T.G X                               ",
"                            2 6 ! ! ! ! L                       X y.Y.Y.P.Y._.E.U.U.5 ! B                               ",
"                            P ! ! ! ! ! C                         H L.P.Y.Y._.).T.$ ! ! !                               ",
"                        + B.T.a.! ! ! ! q                           X u.A.S.b.i 2 w H ! ! X                             ",
"                    5 Z.U.U.U.U.K.! ! ! V                                 + W ! q w u ! ! D                             ",
"                X A.I.U.U.U.U.U.Y.U.! ! ! .                                 . W ! W ! ! ! !                             ",
"              u U.U.U.U.I.I.U.U.Y.Y.a.! ! S                                   . W ! ! ! ! ! 5                           ",
"            . P.U.Y.U.P.Y.Y.Y.Y.Y.x.! ! ! W . . . . . . . . . . . . .           . ! ! ! ! V.Y.c..                       ",
"            O H d.S.P.U.U.P.K.g.! ! ! ! ! $ . . . . . . . . . . . . . . . . . . . I c.C.U.U.Y.Y.C.+                     ",
"            2 w 6 B G P P P P P I T B + . . . . . . . . . . . . . . . . . . . . . L.I.Y.U.U.I.U.P.z.5                   ",
"              @ 7 w w w 0 2 O . .       . . . . . . . . . . . . . . . . . . . . . L.Y.Y.U.I.Y.Y.P.P.! +                 ",
"                                                  . . . . . . . . . . . . . . . + S.U.I.U.Y.Y.Y.Y.Y.n.! .               ",
"                                                          . . . . . . . . . . . 5 c.U.I.Y.Y.P.Y.U.Y.T.! B               ",
"                                                                . . . . . . . . + ! Y.Y.P.A.z.x.S.U.Y.~ W .             ",
"                                                                      . . . . . . ! L.i.J Y Y Y Y F d.d.P .             ",
"                                                                            . . . 5 w Y Y K Y Y Y K A 8 . .             ",
"                                                                                  . . @ 0 w e w w w 4 . .               ",
"                                                                                          . . . . . .                   ",
"                                                                                                                        "
};
