/* XPM */
static char *a0f47b9689bb429cfb77e249279987aetu8GVDMiPNGgEzuv[] = {
/* columns rows colors chars-per-pixel */
"60 60 256 2 ",
"   c black",
".  c #010101",
"X  c #020202",
"o  c gray1",
"O  c #040404",
"+  c gray2",
"@  c #060606",
"#  c #070707",
"$  c gray3",
"%  c #090909",
"&  c gray4",
"*  c #0B0B0B",
"=  c #0C0C0C",
"-  c gray5",
";  c #0E0E0E",
":  c gray6",
">  c #101010",
",  c #111111",
"<  c gray7",
"1  c #131313",
"2  c gray8",
"3  c #151515",
"4  c #161616",
"5  c gray9",
"6  c #181818",
"7  c #191919",
"8  c gray10",
"9  c #1B1B1B",
"0  c gray11",
"q  c #1D1D1D",
"w  c #1E1E1E",
"e  c gray12",
"r  c #202020",
"t  c gray13",
"y  c #222222",
"u  c #232323",
"i  c gray14",
"p  c #252525",
"a  c gray15",
"s  c #272727",
"d  c #282828",
"f  c gray16",
"g  c #2A2A2A",
"h  c gray17",
"j  c #2C2C2C",
"k  c #2D2D2D",
"l  c gray18",
"z  c #2F2F2F",
"x  c gray19",
"c  c #313131",
"v  c #323232",
"b  c gray20",
"n  c #343434",
"m  c #353535",
"M  c gray21",
"N  c #373737",
"B  c gray22",
"V  c #393939",
"C  c #3A3A3A",
"Z  c gray23",
"A  c #3C3C3C",
"S  c gray24",
"D  c #3E3E3E",
"F  c #3F3F3F",
"G  c gray25",
"H  c #414141",
"J  c gray26",
"K  c #434343",
"L  c #444444",
"P  c gray27",
"I  c #464646",
"U  c gray28",
"Y  c #484848",
"T  c #494949",
"R  c gray29",
"E  c #4B4B4B",
"W  c #4C4C4C",
"Q  c gray30",
"!  c #4E4E4E",
"~  c gray31",
"^  c #505050",
"/  c #515151",
"(  c gray32",
")  c #535353",
"_  c gray33",
"`  c #555555",
"'  c #565656",
"]  c gray34",
"[  c #585858",
"{  c gray35",
"}  c #5A5A5A",
"|  c #5B5B5B",
" . c gray36",
".. c #5D5D5D",
"X. c gray37",
"o. c #5F5F5F",
"O. c #606060",
"+. c gray38",
"@. c #626262",
"#. c gray39",
"$. c #646464",
"%. c #656565",
"&. c gray40",
"*. c #676767",
"=. c #686868",
"-. c DimGray",
";. c #6A6A6A",
":. c gray42",
">. c #6C6C6C",
",. c #6D6D6D",
"<. c gray43",
"1. c #6F6F6F",
"2. c gray44",
"3. c #717171",
"4. c #727272",
"5. c gray45",
"6. c #747474",
"7. c gray46",
"8. c #767676",
"9. c #777777",
"0. c gray47",
"q. c #797979",
"w. c gray48",
"e. c #7B7B7B",
"r. c #7C7C7C",
"t. c gray49",
"y. c #7E7E7E",
"u. c gray50",
"i. c #808080",
"p. c #818181",
"a. c gray51",
"s. c #838383",
"d. c #848484",
"f. c gray52",
"g. c #868686",
"h. c gray53",
"j. c #888888",
"k. c #898989",
"l. c gray54",
"z. c #8B8B8B",
"x. c gray55",
"c. c #8D8D8D",
"v. c #8E8E8E",
"b. c gray56",
"n. c #909090",
"m. c gray57",
"M. c #929292",
"N. c #939393",
"B. c gray58",
"V. c #959595",
"C. c gray59",
"Z. c #979797",
"A. c #989898",
"S. c gray60",
"D. c #9A9A9A",
"F. c #9B9B9B",
"G. c gray61",
"H. c #9D9D9D",
"J. c gray62",
"K. c #9F9F9F",
"L. c #A0A0A0",
"P. c gray63",
"I. c #A2A2A2",
"U. c gray64",
"Y. c #A4A4A4",
"T. c #A5A5A5",
"R. c gray65",
"E. c #A7A7A7",
"W. c gray66",
"Q. c #A9A9A9",
"!. c #AAAAAA",
"~. c gray67",
"^. c #ACACAC",
"/. c gray68",
"(. c #AEAEAE",
"). c #AFAFAF",
"_. c gray69",
"`. c #B1B1B1",
"'. c #B2B2B2",
"]. c gray70",
"[. c #B4B4B4",
"{. c gray71",
"}. c #B6B6B6",
"|. c #B7B7B7",
" X c gray72",
".X c #B9B9B9",
"XX c gray73",
"oX c #BBBBBB",
"OX c #BCBCBC",
"+X c gray74",
"@X c gray",
"#X c gray75",
"$X c #C0C0C0",
"%X c #C1C1C1",
"&X c gray76",
"*X c #C3C3C3",
"=X c gray77",
"-X c #C5C5C5",
";X c #C6C6C6",
":X c gray78",
">X c #C8C8C8",
",X c gray79",
"<X c #CACACA",
"1X c #CBCBCB",
"2X c gray80",
"3X c #CDCDCD",
"4X c #CECECE",
"5X c gray81",
"6X c #D0D0D0",
"7X c gray82",
"8X c #D2D2D2",
"9X c LightGray",
"0X c gray83",
"qX c #D5D5D5",
"wX c gray84",
"eX c #D7D7D7",
"rX c #D8D8D8",
"tX c gray85",
"yX c #DADADA",
"uX c gray86",
"iX c gainsboro",
"pX c #DDDDDD",
"aX c gray87",
"sX c #DFDFDF",
"dX c gray88",
"fX c #E1E1E1",
"gX c #E2E2E2",
"hX c gray89",
"jX c #E4E4E4",
"kX c gray90",
"lX c #E6E6E6",
"zX c #E7E7E7",
"xX c gray91",
"cX c #E9E9E9",
"vX c #EAEAEA",
"bX c gray92",
"nX c #ECECEC",
"mX c gray93",
"MX c #EEEEEE",
"NX c #EFEFEF",
"BX c gray94",
"VX c #F1F1F1",
"CX c gray95",
"ZX c #F3F3F3",
"AX c #F4F4F4",
"SX c gray96",
"DX c #F6F6F6",
"FX c gray97",
"GX c #F8F8F8",
"HX c #F9F9F9",
"JX c gray98",
"KX c #FBFBFB",
"LX c gray99",
"PX c #FDFDFD",
"IX c #FEFEFE",
"UX c white",
/* pixels */
"x.x.c.v.v.c.c.c.n.N.M.n.n.b.n.m.m.n.v.b.b.b.b.n.M.C.Z.C.N.N.c.x.b.b.b.b.n.n.m.N.N.M.n.v.b.n.N.N.M.M.M.m.n.b.b.b.b.b.v.c.",
"B.N.N.N.M.M.n.n.b.n.M.M.m.n.m.M.M.M.M.m.n.m.n.m.N.B.m.c.z.z.c.b.v.c.c.v.v.b.n.M.N.N.m.n.b.b.b.b.b.m.n.b.v.b.m.M.N.B.V.C.",
"N.N.B.B.N.M.n.c.x.x.b.m.N.V.C.C.C.V.B.N.m.n.m.N.B.B.M.n.b.M.B.B.N.M.n.v.x.x.c.v.b.n.M.B.B.M.M.N.N.B.V.B.N.M.M.m.m.m.M.N.",
"B.M.n.n.n.n.m.M.m.n.b.c.x.x.c.v.v.n.M.V.Z.Z.C.B.M.n.m.m.m.m.m.c.c.c.c.v.v.n.n.v.c.c.v.n.M.M.M.M.N.V.V.V.C.Z.Z.V.M.N.B.V.",
"c.x.x.c.v.m.M.B.C.V.N.n.b.b.v.b.n.m.M.B.C.B.N.m.M.V.V.M.n.c.v.c.v.b.m.M.M.M.m.n.n.b.b.b.v.c.c.v.n.m.m.n.v.c.b.m.m.m.n.n.",
"b.v.v.v.b.b.n.m.N.M.n.v.c.v.v.v.b.b.m.N.B.N.m.b.b.n.m.M.n.n.b.b.b.b.n.n.n.m.M.m.n.n.n.b.v.c.v.b.m.m.b.c.v.m.N.M.n.n.n.n.",
"M.N.M.M.N.M.m.n.m.M.N.N.M.M.M.m.n.b.n.m.N.B.B.N.m.b.b.c.c.c.b.M.N.N.n.c.c.b.m.m.m.M.m.b.z.k.k.x.n.m.m.m.M.N.N.B.N.M.m.m.",
"n.b.b.n.M.N.M.M.m.m.M.B.V.V.C.C.B.M.n.b.v.v.n.M.N.B.V.B.N.m.b.v.n.m.m.n.b.b.v.v.c.c.v.b.b.v.c.c.b.m.V.Z.Z.Z.V.B.N.M.m.n.",
"v.v.c.z.l.z.c.v.b.m.M.N.M.m.v.x.x.c.b.n.m.m.M.M.N.M.N.B.V.B.M.b.n.M.N.M.N.N.b.c.z.z.c.n.M.M.n.v.v.b.M.M.M.N.V.V.B.n.v.v.",
"m.M.N.m.n.b.b.n.M.V.C.C.B.M.m.b.c.b.m.N.N.M.n.b.n.n.M.B.V.Z.C.B.m.n.M.N.M.M.M.M.M.M.N.B.N.m.b.v.n.N.V.C.V.N.B.N.m.v.v.b.",
"M.B.V.B.m.n.n.b.b.b.n.m.m.n.n.n.m.m.n.n.n.n.M.M.n.n.n.n.b.b.v.v.c.v.v.v.b.n.n.n.m.M.M.M.m.n.m.N.B.B.N.N.N.m.n.b.v.x.c.b.",
"M.B.V.V.B.N.m.n.b.n.M.N.M.m.b.v.v.v.v.c.b.n.M.M.m.m.m.m.m.m.M.M.N.B.B.N.M.m.m.m.M.M.m.n.b.b.n.m.M.N.B.N.n.b.b.n.b.c.c.b.",
"V.B.N.M.m.b.M.M.N.B.C.A.C.B.M.m.n.n.v.v.v.n.M.M.M.m.n.n.b.v.b.b.m.N.B.B.M.b.v.c.b.m.M.M.M.m.m.m.n.b.v.v.c.v.v.b.M.N.B.V.",
"n.b.b.v.b.b.n.m.M.m.N.B.B.B.B.N.M.N.B.B.V.V.V.B.N.m.b.v.x.x.v.n.n.M.M.M.M.m.n.v.v.c.v.b.m.m.m.M.m.n.v.x.x.c.b.M.N.N.N.M.",
"N.N.M.m.b.v.v.c.l.j.l.v.n.m.b.b.b.m.M.M.m.n.m.M.N.N.N.N.N.N.M.n.m.N.B.B.N.M.m.n.b.b.b.b.v.v.n.m.M.M.m.N.V.C.Z.V.N.N.B.B.",
"Z.C.V.M.n.v.b.m.m.n.n.b.v.b.n.b.v.v.b.m.M.N.N.N.B.B.B.N.M.m.n.b.m.B.C.C.B.n.v.c.b.n.M.B.V.V.V.V.B.N.B.M.m.M.B.B.B.B.V.C.",
"m.N.B.N.N.B.V.V.B.N.m.n.n.m.m.m.m.m.m.m.n.m.m.M.B.B.B.M.n.c.z.x.c.v.v.v.b.v.v.c.v.v.n.M.N.N.N.N.N.N.M.n.v.c.v.b.b.c.x.c.",
"A.C.V.B.B.N.M.m.m.m.m.m.m.M.M.M.N.B.B.B.M.n.n.m.M.N.B.B.M.n.v.c.x.x.c.b.n.n.b.b.b.b.v.b.n.m.m.m.m.M.N.B.B.N.M.m.M.B.C.Z.",
"D.S.Z.M.n.n.m.m.m.m.m.M.M.M.M.m.n.b.c.c.x.x.v.n.M.N.m.c.l.l.z.c.v.n.n.m.n.b.v.c.v.b.m.m.m.m.m.M.M.N.N.B.Z.A.V.M.b.n.V.A.",
"N.M.M.M.M.m.m.m.m.m.m.m.m.m.n.b.v.v.b.n.v.x.l.z.v.n.b.v.c.v.b.b.b.m.N.V.V.B.N.M.M.N.N.N.M.M.M.m.n.n.n.M.V.V.V.V.B.V.B.N.",
"x.z.x.v.b.b.n.M.B.B.B.N.N.V.C.C.V.M.M.M.N.B.B.V.V.M.b.v.v.b.b.n.M.N.B.B.C.C.C.Z.Z.C.C.V.N.n.n.n.m.M.M.N.N.N.M.M.M.M.n.v.",
"m.m.m.M.M.n.m.M.M.M.M.N.V.C.A.Z.C.B.m.v.c.c.b.m.N.N.m.b.v.b.b.b.b.n.m.v.x.z.x.c.v.M.B.B.N.m.n.m.N.B.B.M.n.v.c.c.c.v.b.n.",
"A.C.N.M.M.m.m.n.n.n.m.m.m.n.n.m.M.B.B.M.b.x.v.n.M.n.b.c.c.v.v.c.v.n.m.m.b.c.c.b.n.n.N.V.N.M.n.c.c.v.b.b.v.b.n.M.V.C.Z.A.",
"B.V.B.B.N.M.m.n.n.n.M.N.N.m.n.b.b.n.m.m.n.v.v.v.n.n.m.N.B.B.B.N.M.b.v.v.c.x.z.x.v.b.n.M.B.B.M.n.b.b.b.v.v.v.b.n.M.N.M.M.",
"V.C.C.V.C.C.V.M.m.m.M.M.M.m.n.b.v.n.n.n.b.v.v.v.n.n.n.m.M.V.Z.Z.C.V.B.B.N.M.n.b.n.N.B.V.V.B.N.M.M.M.M.n.b.b.v.n.m.M.M.M.",
"N.V.B.M.m.n.b.v.v.v.b.m.N.N.M.v.b.n.M.M.m.n.n.m.m.m.b.v.b.M.B.N.m.n.n.m.m.m.n.n.n.M.B.V.V.V.B.B.B.B.B.N.M.N.N.N.N.M.m.n.",
"B.N.N.N.N.M.N.B.M.m.m.n.m.m.n.v.c.c.v.b.m.m.m.n.b.b.n.m.N.N.M.m.m.m.n.b.b.b.n.n.n.b.m.M.B.B.M.m.v.x.x.x.z.l.l.c.v.m.N.B.",
"B.N.B.N.M.b.v.c.v.v.b.n.m.m.n.v.x.x.v.M.N.N.n.x.z.x.v.b.b.n.n.b.b.b.n.n.m.m.M.M.N.N.N.N.N.N.N.N.n.v.c.x.z.z.z.v.m.M.B.V.",
"m.v.v.b.n.M.M.M.m.v.x.c.b.M.B.B.M.m.b.v.x.z.z.c.c.c.b.N.V.B.M.m.n.n.n.m.m.m.M.B.B.M.M.M.m.n.n.n.m.m.M.V.C.C.V.B.M.M.M.M.",
"v.v.c.c.v.b.m.m.n.v.v.b.m.V.A.F.D.C.N.m.n.v.v.c.v.m.N.V.Z.C.V.N.m.b.b.m.M.m.m.M.N.M.M.M.N.N.M.m.b.b.v.v.c.n.N.V.C.V.m.v.",
"x.x.b.b.b.v.n.n.n.M.M.m.b.v.n.M.B.N.N.M.M.n.b.b.b.n.b.n.n.b.v.c.c.c.v.v.v.v.n.M.M.m.n.n.M.M.M.m.b.b.b.n.b.n.M.C.Z.C.N.M.",
"c.b.v.c.c.c.v.b.n.m.N.B.m.n.b.b.b.b.b.n.n.b.v.b.m.M.N.B.V.C.B.B.N.M.M.M.m.b.b.n.M.N.m.n.m.m.M.M.M.m.n.n.n.m.N.N.m.c.z.z.",
"B.B.N.M.n.v.x.x.c.v.b.n.M.B.B.M.M.N.N.B.B.B.N.M.M.m.m.M.M.N.N.B.B.B.N.m.n.c.x.x.b.m.N.V.C.C.C.V.B.N.m.n.n.M.N.B.M.n.b.m.",
"n.c.c.c.c.v.v.n.n.v.c.c.v.n.m.M.M.M.N.V.V.V.C.Z.Z.V.N.N.B.V.N.M.n.n.n.n.m.M.m.n.b.x.x.x.c.v.v.m.M.V.Z.Z.C.B.M.n.n.m.m.m.",
"v.c.v.b.m.M.M.M.m.n.b.b.b.b.v.c.c.v.n.M.m.n.v.v.b.m.m.m.m.n.v.x.x.c.v.n.M.B.V.V.N.n.b.v.v.b.n.m.M.B.C.B.M.m.M.V.V.M.n.v.",
"b.b.b.n.n.n.m.M.M.m.n.n.n.b.c.c.v.b.m.m.b.v.v.M.N.M.n.n.n.n.b.v.v.v.b.b.b.m.N.M.n.v.c.v.v.v.b.v.m.N.V.B.m.b.b.n.m.M.n.b.",
"b.m.B.N.n.v.c.b.n.m.m.m.m.b.z.k.k.z.n.m.m.M.M.N.N.N.N.M.m.m.M.M.M.M.N.M.m.n.m.M.N.N.M.M.M.m.n.b.n.m.N.B.B.N.m.b.b.c.x.c.",
"v.v.n.m.m.n.b.b.v.v.c.c.v.n.b.v.c.c.b.m.B.Z.Z.C.V.B.N.M.m.n.n.b.n.n.M.N.M.M.m.m.M.B.V.C.C.V.B.M.n.b.v.v.n.M.N.B.V.B.N.m.",
"M.m.m.M.N.M.M.M.v.c.z.z.c.n.M.M.n.v.v.b.M.M.M.N.V.V.B.n.v.v.v.v.c.z.l.z.x.v.v.m.M.N.M.m.v.x.x.v.v.n.m.M.M.M.N.M.N.B.V.V.",
"C.N.m.n.M.N.M.N.M.M.M.M.N.N.N.m.b.v.n.M.V.C.V.B.B.N.m.v.v.b.m.M.M.m.m.b.b.n.M.V.C.C.B.M.m.b.v.b.m.N.N.M.m.b.n.n.M.V.C.C.",
"v.v.c.c.v.v.b.n.n.n.m.M.M.M.m.n.M.N.B.B.N.N.M.m.n.b.v.c.c.b.M.B.V.N.m.b.n.n.b.b.n.m.m.n.b.n.m.m.n.n.n.n.m.M.m.n.n.n.n.b.",
"N.M.N.N.B.B.M.m.m.m.M.M.m.n.b.b.m.m.M.N.B.N.n.v.b.n.b.c.c.v.M.B.V.V.B.N.m.n.b.n.M.N.M.m.b.v.v.v.b.v.v.n.M.M.m.m.m.m.m.m.",
"b.b.n.N.B.B.M.b.c.v.b.m.M.M.M.m.m.m.n.b.v.v.c.c.v.b.M.N.B.V.B.B.N.M.m.n.m.M.N.B.Z.A.C.B.M.m.n.n.v.c.v.n.m.M.M.m.n.n.b.v.",
"v.n.n.m.M.M.M.m.n.b.v.c.v.b.m.m.m.m.m.n.v.x.x.v.b.m.N.N.N.M.n.b.v.v.b.b.n.m.M.M.N.N.B.V.B.N.N.M.B.B.V.V.V.B.N.m.b.v.x.x.",
"M.b.m.N.N.B.N.M.m.n.b.b.b.b.v.v.n.m.M.M.m.M.V.Z.Z.V.N.N.B.B.N.N.M.m.n.v.v.c.l.j.l.v.n.m.n.b.b.m.M.M.m.n.m.M.M.N.N.N.N.M.",
"n.b.m.B.C.C.N.n.c.c.b.n.M.B.B.V.V.V.B.N.N.M.m.M.B.V.B.B.V.C.Z.C.V.M.n.v.b.m.m.m.n.b.b.n.n.b.v.v.b.n.M.N.N.N.B.B.B.N.m.m.",
"x.x.c.v.v.v.b.v.v.c.v.v.n.M.N.N.N.N.N.N.m.n.v.c.b.b.b.c.x.v.n.N.B.N.N.B.B.V.B.B.m.n.n.m.m.m.m.m.m.m.m.m.m.N.B.B.B.M.n.v.",
"b.c.x.x.c.b.m.n.v.b.v.b.b.b.n.m.m.m.m.M.N.B.B.N.m.m.M.B.C.Z.Z.C.V.B.B.N.M.m.m.m.m.m.m.M.M.M.N.B.B.B.M.n.n.m.M.B.B.N.M.m.",
"z.c.v.b.n.m.m.n.v.c.v.b.m.m.m.m.M.M.M.M.N.V.Z.A.V.M.b.n.N.A.D.S.C.M.n.n.m.m.m.m.M.M.M.M.M.m.n.b.c.c.x.x.v.n.m.N.n.c.l.l.",
"b.n.b.m.N.C.V.B.N.M.M.M.B.N.M.M.M.m.n.n.n.M.V.V.V.V.B.B.B.N.N.M.M.M.M.m.m.m.m.m.M.m.m.m.n.b.b.v.b.n.v.z.l.z.v.n.b.v.c.v.",
"b.n.M.N.B.B.C.C.C.C.Z.C.C.V.B.m.b.n.M.M.M.N.N.N.M.M.M.M.n.v.z.z.x.v.b.b.m.M.N.B.B.N.B.V.C.C.V.N.M.M.N.B.B.V.V.M.b.v.v.n.",
"b.b.n.n.n.v.x.z.x.c.n.M.B.B.N.m.n.m.M.B.B.M.n.v.c.c.c.b.b.n.m.m.M.M.m.n.m.m.M.M.m.M.B.C.A.A.C.M.m.v.c.c.b.m.N.N.m.b.v.b.",
"v.c.v.n.m.m.b.c.c.b.b.n.N.V.B.M.b.c.c.v.b.b.v.b.n.M.V.C.Z.A.A.C.N.m.m.m.m.n.n.n.m.m.m.n.n.m.M.B.B.M.n.c.v.n.M.m.b.c.x.v.",
"B.B.M.b.v.c.c.x.z.x.v.b.n.M.B.B.M.n.b.n.b.v.v.v.b.m.M.M.M.M.B.V.B.B.N.M.m.n.n.n.M.N.N.m.n.b.b.n.m.m.n.v.v.b.n.n.m.N.B.B.",
"Z.Z.C.V.N.B.N.M.n.b.n.N.B.B.V.B.N.M.M.M.M.m.b.b.b.n.m.M.M.B.B.C.C.C.C.C.V.M.m.m.M.N.N.m.n.b.b.b.n.n.b.v.v.n.n.n.n.m.M.V.",
"B.N.m.n.n.m.m.m.n.n.n.M.B.V.V.V.B.B.B.B.B.N.M.N.N.N.N.M.m.N.V.V.B.M.m.n.b.v.v.v.b.n.N.N.M.b.b.n.M.M.m.m.n.m.m.m.b.v.b.m.",
"M.m.m.m.n.b.b.b.n.n.n.b.m.M.B.B.M.m.v.x.x.x.z.k.l.x.v.n.N.B.B.N.N.N.N.N.N.N.M.m.n.n.m.m.n.v.c.c.c.b.m.m.m.m.b.b.n.M.M.N.",
"b.b.b.b.n.n.m.m.m.M.N.M.B.N.N.M.B.N.b.v.c.x.z.z.z.v.n.M.B.V.B.N.B.N.M.n.v.c.v.b.b.n.m.M.n.v.x.x.v.m.B.N.b.c.z.x.b.b.b.b.",
"M.m.n.n.n.m.m.m.N.N.B.M.M.m.m.n.b.m.m.m.m.B.C.Z.V.N.M.M.M.M.m.v.v.b.n.M.M.M.n.b.x.c.n.M.N.B.N.m.n.v.x.z.x.c.c.c.b.N.V.B.",
"C.B.m.b.b.m.m.m.n.m.M.M.M.N.B.B.N.M.m.n.v.x.c.b.M.B.V.B.n.v.b.b.c.x.c.v.b.n.b.v.v.b.M.V.S.F.D.V.M.n.b.v.c.x.c.n.M.V.Z.A."
};
