/* XPM */
static char *_d899203ec4a4f0d873e875549623519azWIKqS57zQl9cvs[] = {
/* columns rows colors chars-per-pixel */
"60 60 132 2 ",
"   c #21201C",
".  c #262522",
"X  c #2B2A26",
"o  c #2D2D2B",
"O  c #312F2C",
"+  c #33312E",
"@  c #2D2E30",
"#  c #2F3130",
"$  c #353533",
"%  c #383634",
"&  c #373834",
"*  c #3A3936",
"=  c #363638",
"-  c #393738",
";  c #37383A",
":  c #3D3C3A",
">  c #413E3C",
",  c #3F403D",
"<  c #42413E",
"1  c #3E3F41",
"2  c #413F40",
"3  c #3F4141",
"4  c #454442",
"5  c #484643",
"6  c #464845",
"7  c #4A4946",
"8  c #474749",
"9  c #494748",
"0  c #474A49",
"q  c #4C4C4A",
"w  c #504E4C",
"e  c #4F504C",
"r  c #51514E",
"t  c #4E4F51",
"y  c #514F50",
"u  c #4F5053",
"i  c #565656",
"p  c #565654",
"a  c #545352",
"s  c #585453",
"d  c #595755",
"f  c #575854",
"g  c #595854",
"h  c #585954",
"j  c #585856",
"k  c #595856",
"l  c #595957",
"z  c #5A5B56",
"x  c #5E5A57",
"c  c #5A5A56",
"v  c #575A59",
"b  c gray35",
"n  c #585A59",
"m  c #5A5A58",
"M  c #5B5A58",
"N  c #5A5A5A",
"B  c #5B5B5B",
"V  c #5C5B59",
"C  c #5F5B5A",
"Z  c #5E5D59",
"A  c #5D5E59",
"S  c #5D5D5B",
"D  c #5A5B5D",
"F  c #5B5C5E",
"G  c #5E5E5C",
"H  c #5F5E5C",
"J  c #5D5D5F",
"K  c gray37",
"L  c #5C5C5A",
"P  c #605F5D",
"I  c #605F5D",
"U  c #5E605F",
"Y  c #5E605B",
"T  c #60605E",
"R  c #61605E",
"E  c #61615F",
"W  c #62615F",
"Q  c #62615E",
"!  c #5E5E60",
"~  c #5F6160",
"^  c #606060",
"/  c #626061",
"(  c #626260",
")  c #636260",
"_  c #646361",
"`  c #636562",
"'  c #646560",
"]  c #656661",
"[  c #646462",
"{  c #656462",
"}  c #666563",
"|  c #646464",
" . c #666664",
".. c #676664",
"X. c #676765",
"o. c #656766",
"O. c gray40",
"+. c #676767",
"@. c #646463",
"#. c #686763",
"$. c #686765",
"%. c #686765",
"&. c #676863",
"*. c #676966",
"=. c #696967",
"-. c #6A6865",
";. c #676968",
":. c #6A6869",
">. c #6A6A68",
",. c #6B6A68",
"<. c #6B6D6C",
"1. c #6E6E6C",
"2. c #6F6F6F",
"3. c #6B6A68",
"4. c #70716C",
"5. c #71716F",
"6. c #70726F",
"7. c #71716E",
"8. c #6F6F71",
"9. c #717171",
"0. c #737371",
"q. c #747570",
"w. c #747474",
"e. c #767676",
"r. c #747573",
"t. c #787A77",
"y. c #797876",
"u. c #797B78",
"i. c #7F807B",
"p. c #82817F",
"a. c #808080",
"s. c gray57",
/* pixels */
"p p +.| a B G ( ] z ] P #.P 9.G 5.1.] %.W :.P ..W U s p _ 5 5 q ( 5.W =.] ..>.p v W ( =.7.Q 7.e.1.*.] >._ P ..] C ] ..q ",
"$ O @ 1 ; ; ; 4 : < 4 > < q e q q < 0 : < : * : 7 4 o X X = @ + X 7 q r q 7 : 4 4 < 5 5 e 7 r e q < : * = : 0 4 4 : o ; ",
": 4 ! 3 : ; 4 : ; ; * 4 * & < r 7 9 q q * * < < : , $ 7 I % ; < ,.w a 0 4 r 7 : ; : % ; : q 4 q q 6 ; : 8 4 ; 7 5 0 1.; ",
"0 ~ 8.3 ; 1 0 4 : > < 4 : * $ < 4 q z p w < < < : : : G W % : P 5.4 q G q a z 4 4 < : > ; 4 q a a r r 7 q 9 > 4 0 >.e.; ",
"8 a t 8 8 : : : 4 q 0 : ; = < 4 > 7 4 q 7 q * > < 4 : r g < * r 7 q p ..Y 5 q r w : > 2 4 9 q p u u q t : 4 2 4 ; q C q ",
"8 0 a ! 4 # = ; $ = = ; ; 4 w < : w w ; : : * + < 7 : , s < : 7 a G q 4 6 a 4 < 5 7 4 2 5 : % 7 u 3 8 3 ; = 8 q 4 1 v 0 ",
"0 4 q t ! ; = 8 6 ; $ ; 4 5 r a 5 : 5 5 4 : * * q r < 4 < % < q a 6 W 4 e q.U &.G q 0 4 q 7 0 q 7 6 4 4 2 4 t w q w 0 ; ",
"5 7 4 t B 0 3 4 : = : = < 7 a q a s y 4 5 : * > * < * 5 7 & < q 4 q 7 0 ~ i V z t.*.> q C a q a q 6 8 8 2 8 : > : 5 4 : ",
"4 q a 0 e F i 0 4 3 6 & 4 r V r r r 5 < 7 * $ : 4 6 $ > 4 = + < 7 4 r l i 6 v z u.6.4 l C w s z q q e 1 = : 4 4 $ < 0 % ",
"4 2 5 a u F u 6 4 : , q : 7 a C < 7 I w : * < $ 0 q 7 4 s 4 * % 4 7 a a 8 q o.v | 8.: 4 w r a w V u : ; 4 = 4 a 4 4 a : ",
"6 u i B ~ ~ 0 8 q 6 4 4 5 4 7 C r w r < 7 q 0 7 7 7 4 q h < : 7 , r t.r.v 0 6.q.o.u < 7 8 V z 7 a a u q 8 0 t q q 0 a > ",
"1 8 q p ~ u u i p 4 t 4 7 < r C s w 7 < > < : < : 4 : < < < * : 4 z ;.q.0 u ~ v v : : : 4 G a q q 0 4 4 4 4 4 8 : 4 q > ",
"= 4 q u t u t 8 q t w 5 q q 0 w w 7 7 < < < * < : < * > z C & e >.W 4 5 6 u a , < $ ; : 4 5 0 5 0 4 < 4 * 4 4 1 = 4 q ; ",
"4 : 1 8 u u u t 0 8 4 5 0 p p s 7 < w w : < < q 5 4 q 4 a 5.5 z Y Y V v f V i * < 4 ; 6 s x a w q r : < q 4 4 4 q q q ; ",
": u , 1 t ~ o.i 9 q q 9 0 F s B a 5 < < < : 4 q 4 4 r z g Y < Q Q Y &.6.6.Y e 5 7 e 4 r a g I w q 7 q < 5 q 8 4 a a 0 : ",
"o 4 4 : 8 t ! 8 4 0 C 0 4 y w q z < > % < 4 4 7 7 7 q h r r : A Y Y U U 6.f 5 5 r 5 4 < 7 5 9 > ; % 4 : 1 q 0 7 7 q w : ",
"@ 3 1 : ; q B q ; 1 q t 4 8 0 0 < 4 : * 7 6 5 < < 7 < q C r = < 4 z B W W 7 : < r < : 4 5 5 > > 4 % 4 7 7 4 4 4 7 < q < ",
"4 4 2 0 8 r U a 5 q i y 8 2 4 q 4 q 4 7 4 e q 5 : 4 e 4 a , 6 7 > s _ _ z r q q 5 4 4 : > q 9 9 4 5 7 0 a 7 ; < 5 < 4 % ",
"= = % 4 q q p a a a a a 4 : : 4 q 4 7 4 e r q 4 & 7 z e 0 : : < ; 4 a w s r 7 5 0 : ; $ 7 w g 7 7 4 a a q < : 4 5 e 4 & ",
"$ ; 4 ; = t D 8 9 a a 4 l a < : 5 , < 6 C z r 0 < 7 4 6 w < * 4 2 - $ 4 w < < 7 5 * : : 4 7 w 4 4 q p q 5 5 * < < < 5 * ",
"; $ % 4 $ 4 a i 8 0 y t p u 4 ; = * < 5 5 < r : % * + + 4 * : = $ 7 % : q q > 4 4 : $ $ 4 7 4 : 7 q 7 < q % + & & + 4 : ",
"4 0 : ; 4 < 0 i 4 1 5 : 6 *.a 4 4 < < q * + 7 4 : % + : 5 + > 4 2 2 5 > 5 y 4 4 > : : : 4 q a < 4 a 0 % 4 * * * $ & , $ ",
"t a 4 > 4 q 4 5 - : 4 b Q r 4 < 7 4 4 q < * : * % : $ $ : = 4 a 4 > > 7 0 4 % ; 4 4 7 : : 4 r r 7 q 5 < : $ & & $ & * * ",
"4 q 7 4 0 0 2 ; = > < 0 a r > + < 4 5 4 4 * : & < < $ : > @ : a w 2 5 4 > : $ : 4 % > 5 : > w 7 < > q q < & ; $ O , : $ ",
"0 : % 4 4 * : : = + * : 4 0 < < < 4 a 7 2 4 r : $ < $ o : # 4 4 < 4 < = * < $ $ % : : < : 4 w q r q 4 0 s : + : * o , $ ",
"> q a ; $ 4 4 ; 4 4 * 4 q q % < q r 4 q a a q 4 * $ $ 4 9 = 4 a 7 $ $ < $ 4 4 2 : 4 w < = 4 4 4 < 5 4 q r 4 : * + < < = ",
"4 i t 4 1 8 4 = 3 - : : 4 4 4 7 a 4 > : : 0 5 > : % > W a - : 8 : : $ , < 4 4 2 < % 7 4 % : < : < * < 7 5 * % * + X * * ",
"o - = q # 1 = @ @ o @ : ; * < $ * * : ; 4 r 4 % < ; + 4 = : o - $ 4 $ < : : @ > 4 < < < , + < < % * 7 4 > $ % :   % % % ",
"< q 5.q 3 ; = ; = @ = 0 , : < : : : > 7 4 a 7 0 a 9 > W p.< : s s.V 6 4 3 3 : : < w q q < 7 7 5 q q q r 5 : < > < Z p.+ ",
"0 z e : ; ; ; ; ; 4 4 8 < 4 % * 4 : 4 4 < 7 q G D q 7 p a $ + a Y : = + O O : > < < < 5 < % 5 q e a C Y 7 q < % < x < X ",
"q q r C B ~ ;.~ / ! ( ~ G B p q V C C p r z B r a C 7 q 7 < 4 0 r Y 5 a a r z q ( W W ] Q h ,.C Q h r C 5 s R h < < < < ",
"+ O X 4 q e u 8 4 0 0 4 , 4 z 4 r 0 4 4 < $ * : e 4 * q o = O O X 5 7 r r < < 4 4 < 4 7 5 5 w < < , : < < : 5 7 + X . < ",
"* 4 W 7 q 7 q 4 4 4 4 4 ; ; < q 7 0 7 < < : < < : : $ U -.% % < w < < < < < > * > * * + * < > 5 w > + * < * % * O > #.* ",
"< r ,.< < e e , 4 7 8 8 : = = 5 7 r s q e 4 7 5 < < 4 C Q > < x Q < < < 5 * * < > > * * * > 5 5 5 5 5 > 5 5 > > > x #.* ",
"4 C r < e r q < 4 i D 3 3 4 9 4 q z r q 7 7 % : < < , q w < < < < < < < < * > > w % + * 5 < 5 5 5 5 5 > * * < < * 5 w 5 ",
"4 r a q 5 5 4 < = 3 t t 4 8 4 > : r r > < : * o , 4 , : < > > < < < < < < * X + > > > > 5 > * 5 5 % < > * O > 5 > > x w ",
"7 4 q 4 z 5 < r 8 1 4 y t 0 i a 4 7 r 4 < < < > < < < < < + < < w < g 5 > > * * * > > > 5 5 5 5 5 > > > * > 5 w w < < < ",
"0 q 5 7 q q e q 4 ; 4 0 8 a ! a r r 7 < < < : < : < % : < O > < < < 5 5 > > * + > > * > w 5 5 w < > < * + * % < < < < * ",
"< < 4 < < r s q 4 1 q 9 8 p t q A r q < q : + : < < + < < X % < 5 < > w 5 > > * > > > 5 w 5 w 5 > > * O X * * 5 * > < * ",
"> $ < 0 4 7 q 5 4 4 0 0 4 0 a W r r I q : + : + < 5 5 < w > > * < < > 5 5 5 > * > 5 * > w x 5 w w > * * > O 5 5 < > g < ",
"% 4 5 q r w 4 5 t 0 4 9 q q p ` p r a a q < > 4 5 4 4 7 r : , 5 > 5 w 5 > > > > * > 5 5 5 x x 5 < w w < 5 5 5 < < < a < ",
"% : % < a 4 7 r a 9 9 0 t 8 r p a 0 4 4 < 4 : 4 : 5 ; : 7 * $ : * * w 5 > 5 5 5 > 5 5 5 5 w 5 > < < * < < < * 5 , < e < ",
"$ = ; < : 4 4 < 4 4 0 4 4 q : 4 q 8 4 : : > : > < * & 4 4 + o * * * > > > > > 5 > * > 5 > 5 5 > < < < < * * > * + * < * ",
"* $ % * : 4 7 4 > 4 5 q 7 q : ; ; : 4 4 > 4 4 < < < q q q & + + % * > > > > < < 5 5 5 5 5 5 5 5 < < > < < % > * < < < < ",
"$ 4 * $ 4 q a r e 4 6 q q t ; = ; : : : 4 : 5 7 < > w r 7 * + : % O 5 x x 5 5 5 5 < > w w x x > < < < O > < < > < e < > ",
"+ < : $ : 4 5 4 0 6 e , 4 4 ; O = 1 = $ = < > 4 > 0 5 4 7 % . : % O % > 5 5 > > 5 * > > 5 5 5 > % + < > > < < < < e q < ",
"X % = $ o 0 p 4 & : q 4 , 4 , ; @ = 4 = 4 : 4 > % q q : a ; . $ O O O < x > * > 5 > * > > > * > < > < < < < > < < * e < ",
"- $ $ : 3 7 C a 4 4 : 4 : , , ; o $ 4 4 & + ; > : < 0 4 q * * * O % > < x w > > > > > * * 5 * > < < < < > > * < q , 5 : ",
"$ # # > 5 w q 5 5 5 > 2 : : : ; $ $ 4 4 : o = 3 ; 4 q w q : O + O > 5 > x 5 5 > < * % * * > 5 < < > 5 < < < * < < < e * ",
"+ $ : $ $ 5 w > 4 9 5 $ : ; ; $ = @ % < q 4 = 4 4 < : 4 w 5 X $ * + O 5 w > > 5 < % + * % O * * * > 5 w w 5 < 5 < < g < ",
": $ $ 2 $ * y p > : : : O $ ; = = = 4 < 6 4 * * + $ * $ 7 z % $ O O O * w 5 * % * * O O % X O % * > < > 5 * + + O + < , ",
"4 4 : : 4 : 4 a 4 > : 4 4 : 1 2 2 : < q 4 o , & & $ $ ; r W * : * * > > > > % * * * * * % O % + * 5 * O 5 > % + O < < + ",
"7 r < < : q 4 > % - 4 q q 2 > > q 5 0 7 ; $ % + & * + * % < 4 q * > > 5 > * O * * < * * + O % X + < * O O O + * O * % * ",
", q 4 < 4 < > % $ : : $ 7 5 - * > < 7 4 < < = + * + + < : < : 4 > > > 5 > * O > > O * > O O + X * * > * + O * + O < < + ",
"q 4 % < : % : : $ $ = > : > > > : 4 r 4 < < q % + % * X % < < 4 > > > * * > O * + % % > * > % * 5 < > * 5 * + > + X < + ",
", q < O + < > < 4 > > 9 q : $ 2 w 0 4 7 q 7 w 4 : $ $ * : & < r > O O > * > > > * < 5 > O % 5 > * 5 < < w > * + + < < + ",
"$ $ $ : : < 4 4 4 2 4 : 2 2 > * 4 : 2 4 2 5 9 % % : $ X = % + % O * % * > * > > > % > > O * > > * * % > < * * > > < < * ",
". X o 4 $ : < * $ ; > > - 2 > % : : : ; 9 0 4 $ < * . > $ o   O O > O > > O O * % * % % > O * O % * * > * + * >   + O * ",
": q t.q 4 ; : : ; : : q 4 4 2 4 4 4 4 9 4 q 4 : > > * w =.+ % w i.w > * * * * > 5 5 5 > < 5 > > < 5 > * * > > < < Z p.O ",
"$ 4 7 $ + + o X = 2 : : - 2 = $ ; - - : : : + % X X > > * . O 4 w O O O O O % * > % * > * O > * * * % > O O O + < < < . "
};
